<svg xmlns="http://www.w3.org/2000/svg" width="612" height="792"><path fill="#FFF" d="M21.857 226.607h568.286c12.072 0 21.857-9.785 21.857-21.857v-54.643c0-12.072-9.785-21.857-21.857-21.857H21.857C9.785 128.25 0 138.035 0 150.107v54.643c0 12.072 9.785 21.857 21.857 21.857zm0 218.572h568.286c12.072 0 21.857-9.785 21.857-21.857v-54.643c0-12.072-9.785-21.857-21.857-21.857H21.857C9.785 346.821 0 356.606 0 368.679v54.643c0 12.072 9.785 21.857 21.857 21.857zm0 218.571h568.286c12.072 0 21.857-9.785 21.857-21.857V587.25c0-12.072-9.785-21.857-21.857-21.857H21.857C9.785 565.393 0 575.178 0 587.25v54.643c0 12.072 9.785 21.857 21.857 21.857z"/></svg>