<svg xmlns="http://www.w3.org/2000/svg" viewBox="0 0 52.5 48"><path d="M9.7 40.8c-2.7-4.3-4-8.7-4-13.1 0-3.9 1-7.6 3-11.2 2-3.6 4.8-6.8 8.6-9.8l4.5 2.7c.4.2.7.5.8.8.2.3.2.7.2 1 0 .4-.1.7-.2 1-.2.3-.3.6-.5.8-.5.6-1 1.3-1.6 2-.6.8-1.1 1.6-1.6 2.5-.5.9-.9 1.9-1.2 3-.3 1.1-.5 2.3-.5 3.5 0 1.3.2 2.7.6 4.2.4 1.5 1.1 3.1 2.2 4.7.4.5.5 1.1.5 1.6 0 1.2-.7 2.1-2.1 2.6l-8.7 3.7zm19.4 0c-2.7-4.3-4-8.7-4-13.1 0-3.9 1-7.6 3-11.2 2-3.6 4.8-6.8 8.6-9.8l4.5 2.7c.4.2.7.5.8.8.2.3.2.7.2 1 0 .4-.1.7-.2 1-.2.3-.3.6-.5.8-.5.6-1 1.3-1.6 2-.6.8-1.1 1.6-1.5 2.5-.5.9-.9 1.9-1.2 3-.3 1.1-.5 2.3-.5 3.5 0 1.3.2 2.7.6 4.2.4 1.5 1.1 3.1 2.2 4.7.4.5.5 1.1.5 1.6 0 1.2-.7 2.1-2.1 2.6l-8.8 3.7z" fill="#fff"/></svg>