<svg xmlns="http://www.w3.org/2000/svg" width="34" height="37"><g data-name="Objeto inteligente vectorial"><g data-name="Group 15"><g data-name="Group 14"><path data-name="Path 9" d="M30.909 16.65H14.836V3.587A1.845 1.845 0 0014.218 0H1.854a1.845 1.845 0 00-.618 3.587V18.5a1.852 1.852 0 001.855 1.85h1.855v5.55a5.563 5.563 0 005.564 5.55v4.933a.617.617 0 00.618.617h11.127a.617.617 0 00.618-.617v-4.964a10.5 10.5 0 009.891-10.452v-.617h.618a.617.617 0 00.618-.617 3.091 3.091 0 00-3.091-3.083zM1.236 1.85a.617.617 0 01.618-.617h12.364a.617.617 0 110 1.233H1.854a.617.617 0 01-.618-.616zm1.855 17.267a.617.617 0 01-.618-.617V3.7H13.6v15.417zm18.546 16.65h-9.892V31.45h9.891zm9.891-14.8a9.272 9.272 0 01-9.273 9.25H10.509A4.328 4.328 0 016.182 25.9v-5.55h25.346zm-16.691-1.85v-1.234h16.072a1.858 1.858 0 011.749 1.233z"/></g></g></g></svg>