<svg xmlns="http://www.w3.org/2000/svg" width="119.306" height="93"><g data-name="Group 3"><g data-name="Group 2"><path data-name="Path 3" d="M118.985 47.801a2.1 2.1 0 00-.734-.735h.126L41.4.285a2.094 2.094 0 00-2.1 0L1.171 20.653a2.1 2.1 0 00-.188 3.654l77.081 47.919a2.094 2.094 0 002.138.042l38.046-21.589a2.1 2.1 0 00.737-2.878zM79.302 68.072L6.349 22.646 40.247 4.485l72.826 44.333z" fill="#e08709"/></g></g><g data-name="Group 5"><g data-name="Group 4"><path data-name="Path 4" d="M119.028 58.033a2.1 2.1 0 00-2.872-.777h.126l-36.959 21L3.246 30.942a2.114 2.114 0 10-2.264 3.57l77.082 47.924a2.094 2.094 0 002.138.042l38.046-21.568a2.11 2.11 0 00.78-2.877z" fill="#e08709"/></g></g><g data-name="Group 7"><g data-name="Group 6"><path data-name="Path 5" d="M118.578 68.164a2.1 2.1 0 00-2.3-.682l-37.062 21-75.97-47.331a2.114 2.114 0 10-2.264 3.57l77.082 47.966a2.094 2.094 0 002.138.042l38.046-21.609a2.1 2.1 0 00.331-2.956z" fill="#e08709"/></g></g><g data-name="Group 9"><g data-name="Group 8"><path data-name="Path 6" d="M71.72 24.986a2.094 2.094 0 00-2.947-.323 2.144 2.144 0 00-.163.147l-2.243 2.1a9.528 9.528 0 00-2.348-1.554 6.612 6.612 0 00-3.585-.588 5.362 5.362 0 00-2.912 1.323 4.58 4.58 0 00-1.574 2.793 7.445 7.445 0 00.356 3.4 24.507 24.507 0 001.09 2.646l-4.193 3.758a3.917 3.917 0 01-.123-.438 5.889 5.889 0 01.315-3.006 4.549 4.549 0 00.293-1.409 1.851 1.851 0 00-.545-1.239 2.137 2.137 0 00-3.081-.231 4.454 4.454 0 00-1.321 2.5 7.215 7.215 0 00.376 3.738 10.759 10.759 0 001.279 2.531l-2.411 2.1a2.1 2.1 0 001.4 3.675l-.042.063a2.093 2.093 0 001.409-.525l2.369-2.1a12.38 12.38 0 002.621 1.89 6.281 6.281 0 007.463-.945 4.432 4.432 0 001.409-2.349 6.8 6.8 0 00-.105-3.108 17.66 17.66 0 00-1.629-4.011v-.126l3.476-3.129a4.9 4.9 0 010 1.722 9.3 9.3 0 00-.176 1.933 2.1 2.1 0 00.587 1.365 2.451 2.451 0 001.614.924 2.094 2.094 0 001.53-.546 3.151 3.151 0 00.9-1.575 5.788 5.788 0 000-2.331 9.425 9.425 0 00-.991-2.843 12.854 12.854 0 00-.713-1.176l2.285-2.1a2.1 2.1 0 00.33-2.956zM58.841 42.071a2.094 2.094 0 01-1.908.316 3.75 3.75 0 01-1.174-.525l3.543-3.086a7.384 7.384 0 01.356 1.2 2.227 2.227 0 01-.817 2.095zm2.075-10.29a4.681 4.681 0 01-.188-.987 1.661 1.661 0 01.545-1.533 1.8 1.8 0 011.785-.315 3.65 3.65 0 01.608.273z" fill="#e08709"/></g></g></svg>