<svg xmlns="http://www.w3.org/2000/svg" width="46" height="31"><g data-name="Objeto inteligente vectorial"><g data-name="Group 27"><g data-name="Group 26"><path data-name="Path 15" d="M41.523 12.018V4.562A4.262 4.262 0 0036.95 0H8.905A4.236 4.236 0 004.33 4.562v7.456c-2.214.245-4.329 1.717-4.329 5.1v5.788a1.761 1.761 0 001.77 1.763h.59v4.562a1.761 1.761 0 001.771 1.766h1.673a1.761 1.761 0 001.771-1.766v-4.607h30.848v4.611a1.761 1.761 0 001.771 1.766h1.673a1.761 1.761 0 001.771-1.766v-4.611h.59A1.761 1.761 0 0046 22.858v-5.739c-.15-3.385-2.263-4.856-4.477-5.101zM6.002 4.562h.1a2.513 2.513 0 012.8-2.8H36.95a2.513 2.513 0 012.8 2.8v7.407h-1.326V7.75a1.761 1.761 0 00-1.774-1.766H25.829a1.761 1.761 0 00-1.771 1.766v4.219h-2.067V7.75a1.761 1.761 0 00-1.771-1.766H9.397A1.761 1.761 0 007.626 7.75v4.219H6.002zM36.65 7.75v4.219H25.829V7.75zm-16.334 0v4.219H9.495V7.75zM5.756 29.234H4.083v-4.61h1.673v4.611zm36.013 0h-1.673v-4.61h1.673zm2.312-6.328H1.722v-2.6h42.359zm0-4.366H1.722v-1.421a3.089 3.089 0 013.395-3.384h35.57a3.07 3.07 0 013.395 3.384v1.422z"/></g></g></g></svg>