<svg xmlns="http://www.w3.org/2000/svg" width="40" height="31"><g data-name="Objeto inteligente vectorial"><g data-name="Group 17"><g data-name="Group 16"><path data-name="Path 10" d="M38.47 11.518l-.872-.925-3.06-8.264A3.589 3.589 0 0031.2 0H9.342A3.577 3.577 0 006 2.329L2.983 10.49l-1.256 1.165A4.924 4.924 0 000 15.397v12.04a3.576 3.576 0 003.573 3.562h2.256A3.576 3.576 0 009.4 27.437V25.69h21.2v1.747a3.576 3.576 0 003.573 3.562h2.256A3.576 3.576 0 0040 27.437V15.08a4.97 4.97 0 00-1.53-3.562zM7.607 2.911a1.849 1.849 0 011.735-1.2h21.863a1.861 1.861 0 011.735 1.2l2.667 7.193h-1.992a5.861 5.861 0 00-11.6 0H4.94zm24.265 7.193h-8.128a4.15 4.15 0 018.128 0zM7.692 27.437a1.86 1.86 0 01-1.863 1.85H3.573a1.86 1.86 0 01-1.863-1.85v-2.243a3.466 3.466 0 001.863.5h4.12zm30.6 0a1.86 1.86 0 01-1.863 1.85h-2.258a1.866 1.866 0 01-1.863-1.85V25.69h4.12a3.466 3.466 0 001.863-.5v2.244zm-1.863-3.46H3.573a1.846 1.846 0 01-1.863-1.833v-6.747a3.218 3.218 0 011.137-2.449l.034-.034 1.162-1.1H36.41l.82.882c.009.017.034.026.043.043a3.23 3.23 0 011.009 2.338v7.065h.008a1.851 1.851 0 01-1.863 1.836z"/></g></g><g data-name="Group 19"><g data-name="Group 18"><path data-name="Path 11" d="M11.282 15.243h-6.41a.858.858 0 00-.855.856v4.453a.858.858 0 00.855.856h6.41a.858.858 0 00.855-.856v-4.453a.858.858 0 00-.855-.856zm-.855 4.453h-4.7v-2.74h4.7z"/></g></g><g data-name="Group 21"><g data-name="Group 20"><path data-name="Path 12" d="M35.128 15.243h-6.41a.858.858 0 00-.855.856v4.453a.858.858 0 00.855.856h6.41a.858.858 0 00.855-.856v-4.453a.858.858 0 00-.855-.856zm-.855 4.453h-4.7v-2.74h4.7z"/></g></g><g data-name="Group 23"><g data-name="Group 22"><path data-name="Path 13" d="M24.128 18.839h-8.256a.857.857 0 000 1.713h8.256a.857.857 0 000-1.713z"/></g></g><g data-name="Group 25"><g data-name="Group 24"><path data-name="Path 14" d="M24.128 16.185h-8.256a.857.857 0 000 1.713h8.256a.857.857 0 000-1.713z"/></g></g></g></svg>