<svg version="1.1" id="Capa_1" xmlns="http://www.w3.org/2000/svg" xmlns:xlink="http://www.w3.org/1999/xlink" x="0" y="0" viewBox="0 0 123 93" xml:space="preserve"><style>.st1{fill:#e08709}</style><defs><path id="SVGID_1_" d="M0 0h123v93H0z"/></defs><clipPath id="SVGID_2_"><use xlink:href="#SVGID_1_" overflow="visible"/></clipPath><g id="Watch_38mm_1" clip-path="url(#SVGID_2_)"><g id="icono1" transform="translate(-1.153)"><g id="Group_1" transform="translate(24.153)"><path id="Path_1" class="st1" d="M56.1 37.5V18.9C56.1 8.5 46.8 0 35.4 0S14.8 8.5 14.8 18.9v18.6H0V93h72.5V37.5H56.1zm-38-18.6c0-8.6 7.8-15.7 17.3-15.7s17.3 7 17.3 15.7v18.6H18.1V18.9zm51.1 70.8H3.3v-6.5h65.9v6.5zM3.3 79.9V40.8h65.9V80H3.3z"/><path id="Path_2" class="st1" d="M36.3 50.6c-3.6 0-6.6 2.9-6.6 6.5v9.8c0 3.6 2.9 6.6 6.5 6.7 3.6 0 6.6-2.9 6.7-6.5v-10c-.1-3.6-3-6.5-6.6-6.5zm3.3 16.3c0 1.8-1.5 3.3-3.3 3.3-1.8 0-3.3-1.5-3.3-3.3v-9.8c0-1.8 1.5-3.3 3.3-3.3 1.8 0 3.3 1.5 3.3 3.3v9.8z"/></g></g></g></svg>