<svg xmlns="http://www.w3.org/2000/svg" width="93" height="93"><g data-name="Group 11"><g data-name="Group 10"><path data-name="Path 7" d="M46.5 0A46.5 46.5 0 1093 46.5 46.5 46.5 0 0046.5 0zm1.995 88.911v-8.179a2 2 0 10-3.99 0v8.179A42.49 42.49 0 014.089 48.5h8.179a1.995 1.995 0 100-3.99H4.089A42.49 42.49 0 0144.505 4.089v8.179a1.995 1.995 0 103.99 0V4.089a42.49 42.49 0 0140.416 40.416h-8.179a2 2 0 100 3.99h8.2a42.49 42.49 0 01-40.437 40.416z" fill="#e08709"/></g></g><g data-name="Group 13"><g data-name="Group 12"><path data-name="Path 8" d="M67.546 65.052l-19.051-19.37V25.554a2 2 0 10-3.99 0V46.5a2 2 0 00.578 1.4l19.61 19.945a2 2 0 002.853-2.793z" fill="#e08709"/></g></g></svg>