<svg version="1.1" id="Capa_1" xmlns="http://www.w3.org/2000/svg" x="0" y="0" viewBox="0 0 328 54" xml:space="preserve"><style>.st0{enable-background:new}.st1{fill:#fff}</style><g class="st0"><path class="st1" d="M21 45V13.9h9c1.8 0 3.3.2 4.6.5 1.3.4 2.4.9 3.2 1.6.9.7 1.5 1.5 1.9 2.5s.6 2.1.6 3.3c0 .8-.1 1.6-.4 2.4-.3.8-.7 1.5-1.2 2.1-.5.6-1.2 1.2-2 1.7s-1.7.8-2.7 1c2.4.4 4.3 1.2 5.7 2.4s2 2.9 2 5c0 1.3-.2 2.5-.7 3.6-.5 1.1-1.2 2-2 2.7s-2 1.3-3.3 1.7c-1.3.4-2.8.6-4.4.6H21zm2.2-16.6H30c1.4 0 2.7-.2 3.7-.5 1-.4 1.9-.9 2.5-1.5.7-.6 1.1-1.3 1.4-2 .3-.8.5-1.5.5-2.4 0-2.1-.7-3.7-2-4.8-1.3-1.1-3.4-1.6-6.1-1.6h-6.7v12.8zm0 1.7v13.1H31c2.7 0 4.8-.6 6.2-1.8 1.4-1.2 2.1-2.8 2.1-5 0-1-.2-1.9-.6-2.7-.4-.8-.9-1.5-1.6-2s-1.6-1-2.6-1.3c-1-.3-2.2-.4-3.5-.4h-7.8zM52.3 45H50V13.9h2.3V45zM81 13.9v1.9H64.6v12.6h13.6v1.8H64.6v13H81V45H62.4V13.9H81zm8.9 0c.1.1.2.2.4.3l20.2 27c0-.4-.1-.9-.1-1.3v-26h2V45h-1.1c-.3 0-.6-.1-.8-.4l-20.2-27c0 .4.1.9.1 1.3V45h-2V13.9h1.5zm50.4 0v1.9h-16.4v12.6h13.6v1.8h-13.6v13h16.4V45h-18.7V13.9h18.7zm22.4 3.8c-.1.2-.3.4-.6.4-.2 0-.4-.1-.7-.4s-.7-.6-1.2-.9c-.5-.3-1.2-.6-1.9-.9-.8-.3-1.7-.4-2.9-.4-1.1 0-2.1.2-3 .5-.9.3-1.6.8-2.2 1.3-.6.6-1 1.2-1.3 1.9s-.5 1.5-.5 2.3c0 1.1.2 1.9.7 2.6.4.7 1 1.3 1.8 1.8.7.5 1.6.9 2.5 1.2s1.9.7 2.9 1c1 .3 1.9.7 2.9 1.1.9.4 1.8.9 2.5 1.5s1.3 1.3 1.8 2.2c.4.9.7 1.9.7 3.2 0 1.3-.2 2.5-.7 3.7-.4 1.2-1.1 2.2-1.9 3-.8.9-1.9 1.5-3.1 2-1.2.5-2.6.7-4.2.7-2.1 0-3.8-.4-5.3-1.1-1.5-.7-2.8-1.7-3.9-3l.6-1c.2-.2.4-.3.6-.3.1 0 .3.1.5.3s.5.4.7.6c.3.3.6.5 1.1.8s.9.6 1.4.8c.5.3 1.2.5 1.9.6s1.5.3 2.4.3c1.2 0 2.3-.2 3.3-.6 1-.4 1.8-.9 2.5-1.5s1.2-1.4 1.5-2.3c.4-.9.5-1.8.5-2.8 0-1.1-.2-2-.7-2.7-.4-.7-1-1.3-1.8-1.8-.7-.5-1.6-.9-2.5-1.2-.9-.3-1.9-.6-2.9-.9-1-.3-1.9-.7-2.9-1-.9-.4-1.8-.9-2.5-1.5s-1.3-1.3-1.8-2.2c-.4-.9-.7-2-.7-3.3 0-1 .2-2 .6-3 .4-1 1-1.8 1.7-2.6.8-.7 1.7-1.3 2.8-1.8s2.4-.7 3.8-.7c1.6 0 3.1.3 4.4.8s2.5 1.3 3.5 2.4l-.4.9z"/></g><g class="st0"><path class="st1" d="M175.3 32.6V45h-5.9V13.2h9.7c2.2 0 4 .2 5.6.7 1.5.4 2.8 1.1 3.8 1.9 1 .8 1.7 1.8 2.2 2.9s.7 2.4.7 3.7c0 1.1-.2 2.1-.5 3s-.8 1.8-1.4 2.6c-.6.8-1.3 1.5-2.2 2-.9.6-1.9 1.1-3 1.4.7.4 1.4 1 1.9 1.8l8 11.7h-5.3c-.5 0-1-.1-1.3-.3-.4-.2-.7-.5-.9-.9L180 33.6c-.2-.4-.5-.7-.8-.8-.3-.2-.7-.2-1.3-.2h-2.6zm0-4.3h3.7c1.1 0 2.1-.1 2.9-.4.8-.3 1.5-.7 2-1.2s.9-1.1 1.2-1.7c.3-.7.4-1.4.4-2.2 0-1.6-.5-2.9-1.6-3.7-1.1-.9-2.7-1.3-4.9-1.3h-3.8v10.5zM226 45h-4.6c-.5 0-.9-.1-1.3-.4s-.6-.6-.7-1l-2.4-6.5h-13.2l-2.4 6.5c-.1.3-.3.6-.7.9s-.8.4-1.3.4H195l12.5-31.8h6.1L226 45zm-20.6-12h10.1l-3.9-10.6c-.2-.5-.4-1-.6-1.7-.2-.6-.4-1.3-.6-2.1l-.6 2.1c-.2.7-.4 1.2-.6 1.7L205.4 33zm30.5 12H230V13.2h5.9V45zm29.1-7.5c.3 0 .6.1.8.4l2.3 2.5c-1.3 1.6-2.9 2.8-4.8 3.7s-4.1 1.3-6.8 1.3c-2.4 0-4.5-.4-6.4-1.2-1.9-.8-3.5-1.9-4.8-3.4s-2.4-3.2-3.1-5.1c-.7-2-1.1-4.2-1.1-6.5 0-2.4.4-4.6 1.2-6.6.8-2 1.9-3.7 3.3-5.1 1.4-1.4 3.2-2.6 5.2-3.4s4.2-1.2 6.6-1.2c2.4 0 4.4.4 6.2 1.1 1.8.8 3.3 1.8 4.5 3l-2 2.8c-.1.2-.3.3-.5.5-.2.1-.4.2-.8.2-.3 0-.7-.1-1-.4-.4-.3-.8-.6-1.3-.9-.5-.3-1.2-.6-2.1-.9-.8-.3-1.9-.4-3.2-.4-1.5 0-2.9.3-4.1.8s-2.3 1.3-3.2 2.2c-.9 1-1.6 2.1-2.1 3.5s-.8 2.9-.8 4.7c0 1.8.3 3.4.8 4.8s1.2 2.6 2.1 3.5c.9 1 1.9 1.7 3.1 2.2s2.4.8 3.8.8c.8 0 1.5 0 2.2-.1.7-.1 1.3-.2 1.8-.4s1.1-.4 1.6-.7c.5-.3 1-.7 1.5-1.1.1-.1.3-.2.5-.3.2-.3.4-.3.6-.3zm27.7-24.3v4.7h-14.1v8.8h11.1v4.6h-11.1v9h14.1V45h-20.1V13.2h20.1zm22.1 5.8c-.2.3-.3.6-.6.7-.2.1-.5.2-.8.2-.3 0-.6-.1-1-.3-.4-.2-.8-.5-1.3-.8-.5-.3-1.1-.5-1.7-.8-.7-.2-1.5-.3-2.4-.3-.8 0-1.5.1-2.1.3s-1.1.5-1.5.8c-.4.4-.7.8-.9 1.3-.2.5-.3 1-.3 1.6 0 .7.2 1.4.6 1.9.4.5 1 .9 1.7 1.3s1.5.7 2.4.9 1.8.6 2.7.9c.9.3 1.8.7 2.7 1.1s1.7.9 2.4 1.6c.7.6 1.2 1.4 1.7 2.3s.6 2 .6 3.4-.2 2.8-.7 4-1.2 2.3-2.2 3.3c-.9.9-2.1 1.7-3.5 2.2s-2.9.8-4.7.8c-1 0-2-.1-3-.3-1-.2-1.9-.5-2.8-.8-.9-.4-1.7-.8-2.5-1.3s-1.5-1.1-2.1-1.7l1.7-2.8c.2-.2.4-.4.6-.5s.5-.2.8-.2c.4 0 .8.2 1.2.5.4.3.9.6 1.5 1s1.3.7 2 1c.8.3 1.7.5 2.8.5 1.7 0 3-.4 3.9-1.2.9-.8 1.4-1.9 1.4-3.4 0-.8-.2-1.5-.6-2-.4-.5-1-1-1.7-1.3s-1.5-.7-2.4-.9-1.8-.5-2.7-.8c-.9-.3-1.8-.6-2.7-1.1-.9-.4-1.7-.9-2.4-1.6-.7-.7-1.2-1.5-1.7-2.5s-.6-2.2-.6-3.7c0-1.2.2-2.3.7-3.4.5-1.1 1.1-2.1 2-2.9.9-.9 2-1.5 3.3-2 1.3-.5 2.8-.8 4.4-.8 1.9 0 3.6.3 5.2.9 1.6.6 2.9 1.4 4 2.5l-1.4 2.4z"/></g></svg>